#!OML:ASF I:\Actors\actors\Patient Classification 2\Patient 1\Session 1\actor1.ASF
:FULLY-SPECIFIED
:DEGREES
253
root -0.464092 18.6957 5.44472 4.13699 -9.67649 -3.91116
lowerback 18.7027 -1.28072 3.23545
upperback 0.372941 -0.734101 2.60015
thorax -10.126 -0.436384 1.20242
lowerneck -1.01744 -3.81301 2.57407
upperneck -4.96309 -4.96875 3.28845
head -1.33677 -2.58163 0.631218
rclavicle -2.89232e-014 -1.19271e-014
rhumerus 14.4091 12.7441 -25.214
rradius 140.807
rwrist -72.8646
rhand 4.05379 -54.7601
rfingers 7.12502
rthumb 29.4671 -82.4426
lclavicle -2.89232e-014 -1.19271e-014
lhumerus -45.1369 -2.77235 88.635
lradius 51.2689
lwrist -0.235851
lhand -9.76725 -25.6041
lfingers 7.12502
lthumb 16.2078 3.73839
rfemur 0 0 0
rtibia 0
rfoot 0 0
rtoes 0
lfemur -10.6436 5.60323 -10.7415
ltibia 28.1363
lfoot -22.0075 10.8813
ltoes -56.5308
254
root -0.468751 18.6959 5.45664 4.15706 -9.65228 -3.89725
lowerback 18.7106 -1.29121 3.24392
upperback 0.303772 -0.745313 2.57468
thorax -10.208 -0.443357 1.17488
lowerneck -0.973943 -3.81984 2.62331
upperneck -5.1153 -4.97303 3.24485
head -1.39481 -2.58747 0.613683
rclavicle 2.13694e-014 -1.82882e-014
rhumerus 14.3378 12.6935 -25.219
rradius 140.826
rwrist -72.7097
rhand 4.08206 -54.6885
rfingers 7.12502
rthumb 29.494 -82.3662
lclavicle 2.13694e-014 -1.82882e-014
lhumerus -45.1804 -2.69477 88.5708
lradius 51.2475
lwrist -0.281327
lhand -9.64876 -25.5955
lfingers 7.12502
lthumb 16.3219 3.7376
rfemur 0 0 0
rtibia 0
rfoot 0 0
rtoes 0
lfemur -10.5951 5.49391 -10.7504
ltibia 28.0834
lfoot -22.0468 10.9359
ltoes -56.5148
255
root -0.475808 18.6957 5.46803 4.19099 -9.63997 -3.93306
lowerback 18.6539 -1.28906 3.26003
upperback 0.27135 -0.741196 2.56935
thorax -10.2125 -0.442531 1.15817
lowerneck -0.960674 -3.8325 2.67103
upperneck -5.25692 -4.98556 3.23142
head -1.44363 -2.59744 0.604821
rclavicle 4.96962e-016 -8.34896e-015
rhumerus 14.3694 12.5726 -25.2492
rradius 140.791
rwrist -72.4658
rhand 4.31062 -54.6602
rfingers 7.12502
rthumb 29.7122 -82.2992
lclavicle 4.96962e-016 -8.34896e-015
lhumerus -45.1601 -2.66483 88.5201
lradius 51.225
lwrist -0.312051
lhand -9.57218 -25.4961
lfingers 7.12502
lthumb 16.3956 3.83092
rfemur 0 0 0
rtibia 0
rfoot 0 0
rtoes 0
lfemur -10.5554 5.41421 -10.7002
ltibia 28.0376
lfoot -22.114 10.966
ltoes -56.4748
256
root -0.483461 18.6954 5.47794 4.23697 -9.64749 -3.95844
lowerback 18.6021 -1.28217 3.27235
upperback 0.232126 -0.731422 2.56079
thorax -10.2273 -0.439011 1.13886
lowerneck -0.983779 -3.8325 2.67118
upperneck -5.37117 -4.98155 3.27193
head -1.47502 -2.59832 0.618762
rclavicle -1.09332e-015 -1.59028e-015
rhumerus 14.4441 12.3691 -25.2682
rradius 140.722
rwrist -72.3503
rhand 4.43009 -54.6691
rfingers 7.12502
rthumb 29.8262 -82.2876
lclavicle -1.09332e-015 -1.59028e-015
lhumerus -45.1539 -2.64972 88.4933
lradius 51.2026
lwrist -0.310535
lhand -9.62241 -25.4185
lfingers 7.12502
lthumb 16.3472 3.91254
rfemur 0 0 0
rtibia 0
rfoot 0 0
rtoes 0
lfemur -10.5366 5.38782 -10.6581
ltibia 27.9914
lfoot -22.1355 10.9486
ltoes -56.3356
257
root -0.489548 18.6958 5.48702 4.28069 -9.644 -3.94953
lowerback 18.5926 -1.28131 3.28863
upperback 0.184877 -0.727411 2.53987
thorax -10.2751 -0.438911 1.10666
lowerneck -1.07608 -3.85235 2.6638
upperneck -5.43983 -5.00963 3.27997
head -1.4805 -2.61309 0.621749
rclavicle -5.08889e-014 1.19271e-015
rhumerus 14.3256 12.2451 -25.3513
rradius 140.636
rwrist -72.2251
rhand 4.59446 -54.5712
rfingers 7.12502
rthumb 29.9831 -82.1615
lclavicle -5.08889e-014 1.19271e-015
lhumerus -45.16 -2.61925 88.4808
lradius 51.1742
lwrist -0.300545
lhand -9.69315 -25.5459
lfingers 7.12502
lthumb 16.2791 3.79077
rfemur 0 0 0
rtibia 0
rfoot 0 0
rtoes 0
lfemur -10.5276 5.36251 -10.6571
ltibia 27.9413
lfoot -22.106 10.9528
ltoes -56.2462
258
root -0.495056 18.6964 5.49818 4.31767 -9.63386 -3.95312
lowerback 18.6011 -1.27889 3.32174
upperback 0.133789 -0.715625 2.52816
thorax -10.3375 -0.435823 1.07345
lowerneck -1.16091 -3.87851 2.61134
upperneck -5.50546 -5.04523 3.30813
head -1.48458 -2.63104 0.638458
rclavicle -2.49475e-014 5.56597e-015
rhumerus 13.7447 12.4966 -25.5919
rradius 140.968
rwrist -71.7071
rhand 4.87272 -54.5793
rfingers 7.12502
rthumb 30.2486 -82.1213
lclavicle -2.49475e-014 5.56597e-015
lhumerus -45.1467 -2.57417 88.4805
lradius 51.1059
lwrist -0.350732
lhand -9.79848 -25.8073
lfingers 7.12502
lthumb 16.1777 3.53761
rfemur 0 0 0
rtibia 0
rfoot 0 0
rtoes 0
lfemur -10.5029 5.35068 -10.6427
ltibia 27.8908
lfoot -22.1034 10.9599
ltoes -56.2504
259
root -0.501566 18.6975 5.51166 4.34679 -9.65695 -3.95855
lowerback 18.6017 -1.27382 3.32364
upperback 0.0694058 -0.706013 2.52563
thorax -10.4098 -0.432051 1.06877
lowerneck -1.15555 -3.87435 2.50447
upperneck -5.61252 -5.03354 3.38318
head -1.51498 -2.62658 0.681047
rclavicle -8.34896e-015 2.18663e-014
rhumerus 12.9326 13.0543 -25.858
rradius 141.691
rwrist -70.9802
rhand 4.99341 -54.6319
rfingers 7.12502
rthumb 30.3637 -82.1527
lclavicle -8.34896e-015 2.18663e-014
lhumerus -45.1915 -2.49854 88.4792
lradius 51.0641
lwrist -0.403399
lhand -9.83479 -25.8652
lfingers 7.12502
lthumb 16.1427 3.4825
rfemur 0 0 0
rtibia 0
rfoot 0 0
rtoes 0
lfemur -10.4506 5.32279 -10.6276
ltibia 27.843
lfoot -22.1179 11.0184
ltoes -56.2862
260
root -0.509171 18.6993 5.52408 4.37053 -9.68924 -3.95518
lowerback 18.5842 -1.27486 3.29615
upperback 0.0185908 -0.712281 2.52437
thorax -10.4564 -0.434061 1.08567
lowerneck -1.17403 -3.85938 2.41035
upperneck -5.69647 -5.00998 3.43443
head -1.53497 -2.61538 0.713143
rclavicle -8.94531e-015 1.27222e-014
rhumerus 12.5993 13.2367 -25.8838
rradius 141.964
rwrist -70.6465
rhand 5.09777 -54.5022
rfingers 7.12502
rthumb 30.4632 -82.0046
lclavicle -8.94531e-015 1.27222e-014
lhumerus -45.3013 -2.43267 88.482
lradius 51.1271
lwrist -0.366777
lhand -9.78252 -25.7503
lfingers 7.12502
lthumb 16.1931 3.59333
rfemur 0 0 0
rtibia 0
rfoot 0 0
rtoes 0
lfemur -10.3983 5.34633 -10.616
ltibia 27.7996
lfoot -22.0754 11.063
ltoes -56.3584
261
root -0.515846 18.7003 5.53405 4.38251 -9.70633 -3.95412
lowerback 18.5956 -1.27349 3.28194
upperback -0.0169858 -0.712981 2.50968
thorax -10.5025 -0.43443 1.07908
lowerneck -1.25672 -3.85869 2.42625
upperneck -5.7412 -5.01189 3.41203
head -1.53594 -2.61656 0.702456
rclavicle 7.50412e-015 -1.98785e-015
rhumerus 12.7305 13.0434 -25.7419
rradius 141.824
rwrist -70.6395
rhand 5.08548 -54.2854
rfingers 7.12502
rthumb 30.4515 -81.7899
lclavicle 7.50412e-015 -1.98785e-015
lhumerus -45.4093 -2.42516 88.487
lradius 51.2673
lwrist -0.271375
lhand -9.66065 -25.6405
lfingers 7.12502
lthumb 16.3104 3.69357
rfemur 0 0 0
rtibia 0
rfoot 0 0
rtoes 0
lfemur -10.3542 5.42523 -10.5985
ltibia 27.7628
lfoot -22.0409 11.049
ltoes -56.4517
262
root -0.521779 18.7016 5.54357 4.41348 -9.7039 -3.98205
lowerback 18.6131 -1.27427 3.2939
upperback -0.0606286 -0.709864 2.49804
thorax -10.5616 -0.434361 1.06032
lowerneck -1.29698 -3.86093 2.51406
upperneck -5.84037 -5.01574 3.35642
head -1.56435 -2.62108 0.671899
rclavicle -9.49197e-015 2.06736e-014
rhumerus 12.902 12.8576 -25.6142
rradius 141.694
rwrist -70.6074
rhand 4.90641 -54.1411
rfingers 7.12502
rthumb 30.2807 -81.6772
lclavicle -9.49197e-015 2.06736e-014
lhumerus -45.4903 -2.4406 88.4865
lradius 51.3902
lwrist -0.153399
lhand -9.49403 -25.5494
lfingers 7.12502
lthumb 16.4708 3.77138
rfemur 0 0 0
rtibia 0
rfoot 0 0
rtoes 0
lfemur -10.3304 5.41373 -10.5545
ltibia 27.7252
lfoot -22.0733 11.0782
ltoes -56.5391
263
root -0.527577 18.7034 5.55297 4.474 -9.68052 -4.01701
lowerback 18.5993 -1.282 3.31976
upperback -0.113108 -0.712603 2.50154
thorax -10.613 -0.437361 1.05136
lowerneck -1.31578 -3.85871 2.53468
upperneck -5.96509 -5.01064 3.33835
head -1.60202 -2.62108 0.664824
rclavicle 3.69243e-014 -4.77083e-015
rhumerus 13.0438 12.6719 -25.488
rradius 141.616
rwrist -70.5678
rhand 4.97462 -54.1845
rfingers 7.12502
rthumb 30.3458 -81.7086
lclavicle 3.69243e-014 -4.77083e-015
lhumerus -45.5255 -2.43517 88.5061
lradius 51.4016
lwrist -0.0880455
lhand -9.45697 -25.569
lfingers 7.12502
lthumb 16.5065 3.74887
rfemur 0 0 0
rtibia 0
rfoot 0 0
rtoes 0
lfemur -10.3352 5.33258 -10.5043
ltibia 27.6762
lfoot -22.0962 11.1334
ltoes -56.5755
264
root -0.533525 18.7048 5.56195 4.50566 -9.68205 -3.98674
lowerback 18.5817 -1.27526 3.29631
upperback -0.136205 -0.711646 2.47419
thorax -10.6288 -0.436678 1.03452
lowerneck -1.41378 -3.85479 2.50048
upperneck -6.03179 -5.00496 3.39472
head -1.60415 -2.61917 0.686626
rclavicle -1.05356e-014 2.18663e-014
rhumerus 13.5849 12.0352 -25.1829
rradius 141.282
rwrist -71.038
rhand 5.00748 -54.2852
rfingers 7.12502
rthumb 30.3771 -81.8036
lclavicle -1.05356e-014 2.18663e-014
lhumerus -45.4497 -2.40337 88.5119
lradius 51.2786
lwrist -0.114434
lhand -9.60019 -25.6105
lfingers 7.12502
lthumb 16.3686 3.71874
rfemur 0 0 0
rtibia 0
rfoot 0 0
rtoes 0
lfemur -10.3136 5.28341 -10.5247
ltibia 27.6166
lfoot -22.086 11.1902
ltoes -56.5778
265
root -0.540511 18.7055 5.57145 4.51484 -9.70799 -3.94223
lowerback 18.5807 -1.26417 3.25037
upperback -0.155339 -0.711303 2.42634
thorax -10.6494 -0.435716 1.00838
lowerneck -1.47951 -3.84249 2.48807
upperneck -6.12684 -4.98506 3.46835
head -1.62118 -2.61177 0.711435
rclavicle 2.41523e-014 1.03368e-014
rhumerus 14.8812 10.7 -24.5752
rradius 140.343
rwrist -72.3687
rhand 4.7983 -54.3899
rfingers 7.12502
rthumb 30.1776 -81.9448
lclavicle 2.41523e-014 1.03368e-014
lhumerus -45.3921 -2.33987 88.476
lradius 51.1425
lwrist -0.178818
lhand -9.73441 -25.5523
lfingers 7.12502
lthumb 16.2394 3.78762
rfemur 0 0 0
rtibia 0
rfoot 0 0
rtoes 0
lfemur -10.2589 5.29958 -10.5548
ltibia 27.5521
lfoot -22.0579 11.2144
ltoes -56.5945
266
root -0.546789 18.7058 5.58131 4.52375 -9.70976 -3.9441
lowerback 18.5868 -1.26469 3.25375
upperback -0.190423 -0.711777 2.40482
thorax -10.6925 -0.437126 0.98404
lowerneck -1.46712 -3.83196 2.48152
upperneck -6.25147 -4.96601 3.48505
head -1.66284 -2.60512 0.720229
rclavicle -2.35063e-014 1.63003e-014
rhumerus 14.9057 10.6353 -24.5297
rradius 140.372
rwrist -72.3634
rhand 4.69456 -54.4001
rfingers 7.12502
rthumb 30.0786 -81.9731
lclavicle -2.35063e-014 1.63003e-014
lhumerus -45.4399 -2.28927 88.4652
lradius 51.1083
lwrist -0.233711
lhand -9.68388 -25.514
lfingers 7.12502
lthumb 16.288 3.82186
rfemur 0 0 0
rtibia 0
rfoot 0 0
rtoes 0
lfemur -10.1921 5.31926 -10.5314
ltibia 27.4888
lfoot -22.0548 11.1733
ltoes -56.5503
267
root -0.552627 18.7062 5.59042 4.52209 -9.68294 -3.93971
lowerback 18.6116 -1.26527 3.25399
upperback -0.224873 -0.711106 2.3922
thorax -10.7454 -0.437572 0.971407
lowerneck -1.47791 -3.83616 2.47739
upperneck -6.31553 -4.9711 3.46458
head -1.68191 -2.60842 0.715604
rclavicle 1.03865e-014 7.95139e-015
rhumerus 14.9649 10.526 -24.4245
rradius 140.36
rwrist -72.3823
rhand 4.69614 -54.3205
rfingers 7.12502
rthumb 30.0801 -81.8932
lclavicle 1.03865e-014 7.95139e-015
lhumerus -45.4526 -2.23023 88.4731
lradius 51.0795
lwrist -0.251822
lhand -9.45524 -25.4945
lfingers 7.12502
lthumb 16.5082 3.8232
rfemur 0 0 0
rtibia 0
rfoot 0 0
rtoes 0
lfemur -10.1233 5.22484 -10.5226
ltibia 27.437
lfoot -22.1257 11.1722
ltoes -56.4653
